<svg width="51.000244" height="30.000000" viewBox="0 0 51.0002 30" fill="none" xmlns="http://www.w3.org/2000/svg" xmlns:xlink="http://www.w3.org/1999/xlink">
	<desc>
			Created with Pixso.
	</desc>
	<defs/>
	<path id="Vector" d="M48.95 29.99L43.36 29.99C41.25 29.99 40.61 28.3 36.83 24.55C33.52 21.39 32.12 21 31.29 21C30.13 21 29.81 21.31 29.81 22.89L29.81 27.86C29.81 29.21 29.37 30 25.82 30C22.38 29.77 19.04 28.73 16.08 26.97C13.13 25.22 10.63 22.79 8.8 19.89C4.47 14.55 1.45 8.28 0 1.58C0 0.75 0.31 0 1.91 0L7.49 0C8.92 0 9.44 0.63 10 2.09C12.71 9.99 17.33 16.85 19.21 16.85C19.93 16.85 20.24 16.54 20.24 14.76L20.24 6.63C20 2.92 18.02 2.61 18.02 1.27C18.04 0.91 18.2 0.58 18.47 0.34C18.74 0.11 19.09 -0.02 19.45 0L28.22 0C29.42 0 29.81 0.59 29.81 2.01L29.81 12.99C29.81 14.17 30.33 14.56 30.69 14.56C31.41 14.56 31.96 14.17 33.28 12.87C36.11 9.45 38.42 5.65 40.14 1.58C40.31 1.09 40.65 0.67 41.08 0.38C41.52 0.1 42.04 -0.04 42.57 0L48.15 0C49.82 0 50.18 0.83 49.82 2.01C47.79 6.51 45.28 10.79 42.33 14.76C41.73 15.67 41.49 16.14 42.33 17.21C42.88 18.04 44.84 19.66 46.15 21.19C48.07 23.08 49.66 25.27 50.86 27.66C51.34 29.21 50.54 29.99 48.95 29.99Z" fill="#FFFFFF" fill-opacity="1.000000" fill-rule="nonzero"/>
</svg>
