<svg width="20.000000" height="20.000000" viewBox="0 0 20 20" fill="none" xmlns="http://www.w3.org/2000/svg" xmlns:xlink="http://www.w3.org/1999/xlink">
	<desc>
			Created with Pixso.
	</desc>
	<defs/>
	<path id="Vector" d="M12.18 12.19L4 16L7.81 7.8L16 4L12.18 12.19ZM10 0C8.68 0 7.38 0.25 6.17 0.76C4.95 1.26 3.85 2 2.92 2.92C1.05 4.8 0 7.34 0 10C0 12.65 1.05 15.19 2.92 17.07C3.85 18 4.95 18.73 6.17 19.23C7.38 19.74 8.68 20 10 20C12.65 20 15.19 18.94 17.07 17.07C18.94 15.19 20 12.65 20 10C20 8.68 19.74 7.38 19.23 6.17C18.73 4.95 17.99 3.85 17.07 2.92C16.14 2 15.04 1.26 13.82 0.76C12.61 0.25 11.31 0 10 0ZM10 8.9C9.7 8.9 9.42 9.01 9.22 9.22C9.01 9.42 8.89 9.7 8.89 10C8.89 10.29 9.01 10.57 9.22 10.77C9.42 10.98 9.7 11.09 10 11.09C10.29 11.09 10.57 10.98 10.77 10.77C10.98 10.57 11.1 10.29 11.1 10C11.1 9.7 10.98 9.42 10.77 9.22C10.57 9.01 10.29 8.9 10 8.9Z" fill="#DB252C" fill-opacity="1.000000" fill-rule="nonzero"/>
</svg>
