<svg width="20.007324" height="20.000000" viewBox="0 0 20.0073 20" fill="none" xmlns="http://www.w3.org/2000/svg" xmlns:xlink="http://www.w3.org/1999/xlink">
	<desc>
			Created with Pixso.
	</desc>
	<defs/>
	<path id="Vector" d="M6 16C4.89 16 4.01 16.89 4.01 18C4.01 19.1 4.89 20 6 20C7.1 20 8 19.1 8 18C8 16.89 7.1 16 6 16ZM0 1C0 1.55 0.44 2 1 2L2 2L5.6 9.59L4.25 12.03C3.52 13.37 4.47 15 6 15L17 15C17.54 15 18 14.55 18 14C18 13.45 17.54 13 17 13L6 13L7.1 11L14.55 11C15.3 11 15.96 10.59 16.29 9.96L19.87 3.47C20.25 2.82 19.77 2 19.01 2L4.2 2L3.54 0.57C3.37 0.21 3.02 0 2.63 0L1 0C0.44 0 0 0.44 0 1ZM16 16C14.89 16 14.01 16.89 14.01 18C14.01 19.1 14.89 20 16 20C17.1 20 18 19.1 18 18C18 16.89 17.1 16 16 16Z" fill="#000000" fill-opacity="1.000000" fill-rule="nonzero"/>
</svg>
