<svg width="16.875000" height="18.000000" viewBox="0 0 16.875 18" fill="none" xmlns="http://www.w3.org/2000/svg" xmlns:xlink="http://www.w3.org/1999/xlink">
	<desc>
			Created with Pixso.
	</desc>
	<defs/>
	<path id="Vector" d="M15.96 10.12L16.87 10.12L16.87 11.25L16.68 11.25C16.56 11.58 16.4 11.88 16.18 12.16C15.97 12.43 15.72 12.67 15.44 12.87C15.15 13.07 14.85 13.22 14.52 13.33C14.2 13.43 13.86 13.49 13.5 13.5C13.14 13.5 12.8 13.44 12.47 13.34C12.13 13.23 11.83 13.08 11.54 12.88C11.26 12.68 11.02 12.44 10.81 12.17C10.59 11.89 10.43 11.58 10.31 11.25L10.12 11.25L10.12 10.12L11.03 10.12L12.67 5.2L9 3.98L9 14.64C9.99 14.7 10.91 14.92 11.78 15.3C12.65 15.67 13.45 16.2 14.17 16.87L15.18 16.87C15.49 16.87 15.75 17.12 15.75 17.43C15.75 17.74 15.49 18 15.18 18L1.68 18C1.37 18 1.12 17.74 1.12 17.43C1.12 17.12 1.37 16.87 1.68 16.87L2.69 16.87C3.41 16.2 4.21 15.68 5.08 15.31C5.96 14.93 6.89 14.71 7.87 14.64L7.87 9.12L7.87 3.6L4.41 2.45L5.84 6.75L6.75 6.75L6.75 7.87L6.55 7.87C6.43 8.2 6.27 8.51 6.06 8.78C5.85 9.06 5.6 9.3 5.31 9.5C5.03 9.7 4.72 9.85 4.4 9.95C4.08 10.06 3.73 10.11 3.37 10.12C3.02 10.12 2.68 10.07 2.34 9.96C2.01 9.86 1.7 9.7 1.42 9.5C1.14 9.31 0.89 9.07 0.68 8.79C0.47 8.52 0.31 8.21 0.19 7.87L0 7.87L0 6.75L0.9 6.75L2.54 1.82L0.78 1.24C0.48 1.14 0.32 0.82 0.42 0.52C0.52 0.23 0.84 0.07 1.13 0.17L7.87 2.41L7.87 0.56C7.87 0.25 8.12 0 8.43 0C8.74 0 9 0.25 9 0.56L9 2.79L16.08 5.14C16.37 5.24 16.53 5.56 16.43 5.86C16.34 6.15 16.02 6.31 15.72 6.21L14.52 5.81L15.96 10.12ZM5.32 7.87L1.42 7.87C1.62 8.22 1.9 8.5 2.25 8.7C2.59 8.9 2.97 9 3.37 9C3.77 9 4.15 8.9 4.5 8.7C4.84 8.5 5.12 8.22 5.32 7.87ZM4.65 6.75L3.37 2.9L2.09 6.75L4.65 6.75ZM8.43 15.75C7.74 15.75 7.06 15.84 6.4 16.03C5.74 16.21 5.12 16.5 4.53 16.87L12.33 16.87C11.75 16.5 11.13 16.22 10.46 16.04C9.79 15.85 9.12 15.75 8.43 15.75ZM13.5 6.27L12.21 10.12L14.78 10.12L13.5 6.27ZM15.45 11.25L11.54 11.25C11.75 11.6 12.02 11.87 12.37 12.07C12.72 12.27 13.09 12.37 13.5 12.37C13.9 12.37 14.27 12.27 14.62 12.07C14.97 11.87 15.24 11.6 15.45 11.25Z" fill="#000000" fill-opacity="1.000000" fill-rule="nonzero"/>
</svg>
