<svg width="22.500000" height="24.000000" viewBox="0 0 22.5 24" fill="none" xmlns="http://www.w3.org/2000/svg" xmlns:xlink="http://www.w3.org/1999/xlink">
	<desc>
			Created with Pixso.
	</desc>
	<defs/>
	<path id="Vector" d="M21.29 13.5L22.5 13.5L22.5 15L22.24 15C22.08 15.44 21.86 15.85 21.58 16.21C21.3 16.58 20.97 16.9 20.58 17.16C20.2 17.43 19.8 17.63 19.37 17.77C18.94 17.91 18.48 17.99 18 18C17.53 18 17.07 17.92 16.62 17.78C16.18 17.64 15.77 17.44 15.39 17.17C15.02 16.91 14.69 16.59 14.41 16.23C14.13 15.86 13.91 15.45 13.75 15L13.5 15L13.5 13.5L14.7 13.5L16.89 6.93L12 5.3L12 19.52C13.32 19.6 14.55 19.9 15.71 20.4C16.87 20.9 17.93 21.6 18.9 22.5L20.25 22.5C20.66 22.5 21 22.83 21 23.25C21 23.66 20.66 24 20.25 24L2.25 24C1.83 24 1.5 23.66 1.5 23.25C1.5 22.83 1.83 22.5 2.25 22.5L3.59 22.5C4.55 21.6 5.62 20.91 6.78 20.41C7.94 19.91 9.18 19.61 10.5 19.52L10.5 4.8L5.88 3.26L7.79 9L9 9L9 10.5L8.74 10.5C8.58 10.94 8.36 11.35 8.08 11.71C7.8 12.08 7.47 12.4 7.08 12.66C6.7 12.93 6.3 13.13 5.87 13.27C5.44 13.41 4.98 13.49 4.5 13.5C4.03 13.5 3.57 13.42 3.12 13.28C2.68 13.14 2.27 12.94 1.89 12.67C1.52 12.41 1.19 12.09 0.91 11.73C0.63 11.36 0.41 10.95 0.25 10.5L0 10.5L0 9L1.2 9L3.39 2.43L1.04 1.65C0.64 1.52 0.43 1.09 0.56 0.7C0.7 0.31 1.12 0.1 1.51 0.23L10.5 3.22L10.5 0.75C10.5 0.33 10.83 0 11.25 0C11.66 0 12 0.33 12 0.75L12 3.72L21.44 6.86C21.83 6.99 22.05 7.42 21.91 7.81C21.78 8.21 21.36 8.42 20.96 8.29L19.37 7.75L21.29 13.5ZM7.1 10.5L1.89 10.5C2.17 10.96 2.53 11.33 3 11.6C3.46 11.86 3.96 12 4.5 12C5.03 12 5.53 11.86 6 11.6C6.46 11.33 6.82 10.96 7.1 10.5ZM6.21 9L4.5 3.86L2.78 9L6.21 9ZM11.25 21C10.32 21 9.42 21.12 8.54 21.37C7.66 21.62 6.82 22 6.04 22.5L16.45 22.5C15.67 22 14.84 21.63 13.95 21.38C13.06 21.13 12.16 21 11.25 21ZM18 8.36L16.28 13.5L19.71 13.5L18 8.36ZM20.6 15L15.39 15C15.67 15.46 16.03 15.83 16.5 16.1C16.96 16.36 17.46 16.5 18 16.5C18.53 16.5 19.03 16.36 19.5 16.1C19.96 15.83 20.32 15.46 20.6 15Z" fill="#000000" fill-opacity="1.000000" fill-rule="nonzero"/>
</svg>
