<svg width="53.136719" height="60.000000" viewBox="0 0 53.1367 60" fill="none" xmlns="http://www.w3.org/2000/svg" xmlns:xlink="http://www.w3.org/1999/xlink">
	<desc>
			Created with Pixso.
	</desc>
	<defs/>
	<path id="Vector" d="M48.33 21.46L53.13 21.46L53.13 45.67L48.33 45.67L48.33 60L4.8 60L4.8 45.67L0 45.67L0 21.46L4.8 21.46L4.8 0L36.13 0L36.46 0.39L36.47 0.4L48.04 13.61L48.33 13.95L48.33 21.46ZM34.41 2.35L7.15 2.35L7.15 21.46L45.98 21.46L45.98 15.56L34.41 15.56L34.41 2.35ZM5.35 25.52L5.35 42.86L9.29 42.86L9.29 36.58C9.65 36.63 10.12 36.66 10.64 36.66C12.99 36.66 14.99 36.08 16.35 34.8C17.39 33.81 17.97 32.36 17.97 30.63C17.97 28.91 17.21 27.45 16.09 26.57C14.92 25.63 13.17 25.16 10.72 25.16C8.3 25.16 6.58 25.32 5.35 25.52ZM33.11 40.77C34.81 39.34 36.04 37.02 36.04 33.66C36.04 30.56 34.89 28.39 33.06 27.04C31.37 25.76 29.21 25.16 25.87 25.16C23.86 25.16 21.96 25.29 20.5 25.52L20.5 42.78C21.49 42.91 22.95 43.04 25.01 43.04C28.45 43.04 31.27 42.31 33.11 40.77ZM42.63 28.55L49.38 28.55L49.38 25.29L38.65 25.29L38.65 42.86L42.63 42.86L42.63 35.8L48.94 35.8L48.94 32.56L42.63 32.56L42.63 28.55ZM7.15 57L45.98 57L45.98 45.67L7.15 45.67L7.15 57Z" fill="#000000" fill-opacity="1.000000" fill-rule="evenodd"/>
</svg>
