<svg width="18.006836" height="18.000000" viewBox="0 0 18.0068 18" fill="none" xmlns="http://www.w3.org/2000/svg" xmlns:xlink="http://www.w3.org/1999/xlink">
	<desc>
			Created with Pixso.
	</desc>
	<defs/>
	<path id="Vector" d="M5.39 14.4C4.41 14.4 3.6 15.21 3.6 16.2C3.6 17.19 4.41 18 5.39 18C6.39 18 7.2 17.19 7.2 16.2C7.2 15.21 6.39 14.4 5.39 14.4ZM0 0.9C0 1.39 0.4 1.79 0.89 1.79L1.79 1.79L5.04 8.63L3.82 10.82C3.16 12.03 4.03 13.5 5.39 13.5L15.29 13.5C15.79 13.5 16.2 13.09 16.2 12.59C16.2 12.1 15.79 11.7 15.29 11.7L5.39 11.7L6.39 9.9L13.09 9.9C13.77 9.9 14.36 9.53 14.66 8.97L17.89 3.13C18.22 2.53 17.79 1.79 17.1 1.79L3.78 1.79L3.18 0.51C3.04 0.19 2.71 0 2.37 0L0.89 0C0.4 0 0 0.4 0 0.9ZM14.39 14.4C13.41 14.4 12.6 15.21 12.6 16.2C12.6 17.19 13.41 18 14.39 18C15.39 18 16.2 17.19 16.2 16.2C16.2 15.21 15.39 14.4 14.39 14.4Z" fill="#000000" fill-opacity="1.000000" fill-rule="nonzero"/>
</svg>
