<svg width="20.408203" height="18.000000" viewBox="0 0 20.4082 18" fill="none" xmlns="http://www.w3.org/2000/svg" xmlns:xlink="http://www.w3.org/1999/xlink">
	<desc>
			Created with Pixso.
	</desc>
	<defs/>
	<path id="Vector" d="M11.58 17.47C10.8 18.17 9.61 18.17 8.83 17.46L8.72 17.36C3.36 12.51 -0.13 9.34 0 5.38C0.06 3.65 0.95 1.98 2.39 1.01C5.08 -0.83 8.4 0.03 10.2 2.13C11.99 0.03 15.32 -0.84 18.01 1.01C19.45 1.98 20.34 3.65 20.4 5.38C20.54 9.34 17.03 12.51 11.68 17.38L11.58 17.47Z" fill="#FFFFFF" fill-opacity="1.000000" fill-rule="nonzero"/>
	<path id="Vector" d="M9.42 1.37C7.54 -0.15 4.73 -0.59 2.39 1.01C0.95 1.98 0.06 3.65 0 5.38C-0.13 9.34 3.36 12.51 8.72 17.36L8.83 17.46C9.61 18.17 10.8 18.17 11.58 17.47L11.68 17.38L11.74 17.32C17.06 12.49 20.54 9.32 20.4 5.38C20.34 3.65 19.45 1.98 18.01 1.01C15.67 -0.6 12.85 -0.15 10.98 1.37C10.69 1.6 10.43 1.85 10.2 2.13C9.96 1.85 9.7 1.6 9.42 1.37ZM9.85 16.85Q9.7 16.78 9.57 16.66L9.56 16.66L9.45 16.55Q8.15 15.38 7.53 14.82Q6.54 13.91 5.83 13.22Q4.13 11.58 3.14 10.36Q2.05 9 1.55 7.82Q1.07 6.67 1.08 5.53Q1.08 5.48 1.08 5.42Q1.1 4.97 1.2 4.55Q1.33 3.97 1.63 3.43Q1.97 2.8 2.45 2.34Q2.7 2.1 3 1.9Q3.6 1.49 4.26 1.29Q4.48 1.22 4.7 1.17Q4.97 1.12 5.24 1.1Q5.84 1.05 6.44 1.16Q6.74 1.21 7.02 1.3Q7.56 1.46 8.06 1.75Q8.62 2.07 9.06 2.5Q9.23 2.66 9.37 2.83L10.2 3.79L11.02 2.83Q11.17 2.66 11.34 2.5Q11.78 2.06 12.34 1.75Q12.85 1.45 13.4 1.29Q13.68 1.2 13.96 1.15Q14.57 1.04 15.17 1.09Q15.43 1.12 15.69 1.17Q15.92 1.21 16.14 1.28Q16.8 1.49 17.4 1.9Q17.7 2.11 17.97 2.36Q18.44 2.82 18.77 3.43Q19.06 3.96 19.2 4.53Q19.3 4.96 19.32 5.42Q19.32 5.48 19.32 5.55Q19.33 6.68 18.86 7.81Q18.36 8.98 17.27 10.34Q16.3 11.55 14.6 13.19Q13.9 13.88 12.91 14.79Q12.31 15.34 11.01 16.52L11 16.53L11 16.53L11 16.53L11 16.53L10.99 16.54L10.99 16.54L10.99 16.54L10.99 16.54L10.98 16.55L10.98 16.55L10.97 16.55L10.97 16.55L10.97 16.55L10.97 16.55L10.97 16.56L10.97 16.56L10.97 16.56L10.97 16.56L10.96 16.56L10.96 16.57L10.96 16.57L10.96 16.57L10.95 16.57L10.95 16.57L10.95 16.57L10.95 16.58L10.85 16.66Q10.71 16.79 10.55 16.85Q10.39 16.91 10.21 16.91Q10.02 16.91 9.85 16.85Z" fill="#FFFFFF" fill-opacity="1.000000" fill-rule="evenodd"/>
</svg>
