<svg width="34.000000" height="30.000000" viewBox="0 0 34 30" fill="none" xmlns="http://www.w3.org/2000/svg" xmlns:xlink="http://www.w3.org/1999/xlink">
	<desc>
			Created with Pixso.
	</desc>
	<defs/>
	<path id="Vector" d="M28.62 28.74C28.51 29 28.35 29.24 28.15 29.44C27.94 29.64 27.7 29.79 27.43 29.88C27.16 29.98 26.88 30.01 26.6 29.99C26.32 29.96 26.04 29.88 25.8 29.74L18.15 23.74L13.24 28.31C13.12 28.39 12.99 28.45 12.85 28.47C12.71 28.49 12.57 28.47 12.43 28.42L13.37 19.93L13.4 19.96L13.42 19.79C13.42 19.79 27.19 7.16 27.75 6.62C28.32 6.09 28.13 5.97 28.13 5.97C28.16 5.32 27.11 5.97 27.11 5.97L8.87 17.79L1.28 15.19C1.28 15.19 0.11 14.77 0 13.84C-0.11 12.92 1.31 12.42 1.31 12.42L31.51 0.33C31.51 0.33 34 -0.79 34 1.06L28.62 28.74Z" fill="#FFFFFF" fill-opacity="1.000000" fill-rule="nonzero"/>
</svg>
