<svg width="66.666504" height="60.000000" viewBox="0 0 66.6665 60" fill="none" xmlns="http://www.w3.org/2000/svg" xmlns:xlink="http://www.w3.org/1999/xlink">
	<desc>
			Created with Pixso.
	</desc>
	<defs/>
	<path id="Vector" d="M53.33 0L13.33 0L13.33 13.33L53.33 13.33L53.33 0ZM56.66 30C55.78 30 54.93 29.64 54.3 29.02C53.68 28.39 53.33 27.55 53.33 26.66C53.33 25.78 53.68 24.93 54.3 24.3C54.93 23.68 55.78 23.33 56.66 23.33C57.55 23.33 58.39 23.68 59.02 24.3C59.64 24.93 60 25.78 60 26.66C60 27.55 59.64 28.39 59.02 29.02C58.39 29.64 57.55 30 56.66 30ZM46.66 53.33L20 53.33L20 36.66L46.66 36.66L46.66 53.33ZM56.66 16.66L10 16.66C7.34 16.66 4.8 17.72 2.92 19.59C1.05 21.47 0 24.01 0 26.66L0 46.66L13.33 46.66L13.33 60L53.33 60L53.33 46.66L66.66 46.66L66.66 26.66C66.66 24.01 65.61 21.47 63.73 19.59C61.86 17.72 59.31 16.66 56.66 16.66Z" fill="#000000" fill-opacity="1.000000" fill-rule="nonzero"/>
</svg>
