<svg width="42.000000" height="30.000000" viewBox="0 0 42 30" fill="none" xmlns="http://www.w3.org/2000/svg" xmlns:xlink="http://www.w3.org/1999/xlink">
	<desc>
			Created with Pixso.
	</desc>
	<defs/>
	<path id="Vector" d="M16.79 21.42L27.69 15L16.79 8.57L16.79 21.42ZM41.07 4.64C41.34 5.65 41.53 7 41.66 8.72C41.81 10.43 41.87 11.91 41.87 13.2L42 15C42 19.69 41.66 23.14 41.07 25.35C40.55 27.27 39.33 28.52 37.44 29.05C36.45 29.33 34.64 29.52 31.87 29.65C29.14 29.8 26.64 29.87 24.33 29.87L21 30C12.2 30 6.71 29.65 4.55 29.05C2.66 28.52 1.44 27.27 0.92 25.35C0.65 24.34 0.46 22.99 0.33 21.27C0.18 19.56 0.12 18.08 0.12 16.79L0 15C0 10.3 0.33 6.85 0.92 4.64C1.44 2.72 2.66 1.47 4.55 0.94C5.54 0.66 7.35 0.47 10.12 0.34C12.85 0.19 15.35 0.12 17.66 0.12L21 0C29.79 0 35.28 0.34 37.44 0.94C39.33 1.47 40.55 2.72 41.07 4.64Z" fill="#FFFFFF" fill-opacity="1.000000" fill-rule="nonzero"/>
</svg>
